<svg width="15" height="15" viewBox="0 0 15 15" fill="none" xmlns="http://www.w3.org/2000/svg">
<g clip-path="url(#clip0_2866_1513)">
<path d="M14.5862 4.16309L13.2356 5.51367C13.0979 5.65137 12.8753 5.65137 12.7376 5.51367L9.48563 2.26172C9.34794 2.12402 9.34794 1.90137 9.48563 1.76367L10.8362 0.413086C11.3841 -0.134766 12.2747 -0.134766 12.8255 0.413086L14.5862 2.17383C15.137 2.72168 15.137 3.61231 14.5862 4.16309ZM8.32548 2.92383L0.632118 10.6172L0.0110246 14.1768C-0.0739364 14.6572 0.345009 15.0732 0.825478 14.9912L4.38505 14.3672L12.0784 6.67383C12.2161 6.53613 12.2161 6.31348 12.0784 6.17578L8.82645 2.92383C8.68583 2.78613 8.46317 2.78613 8.32548 2.92383V2.92383ZM3.63505 9.95801C3.47392 9.79688 3.47392 9.53906 3.63505 9.37793L8.14677 4.86621C8.3079 4.70508 8.56571 4.70508 8.72685 4.86621C8.88798 5.02734 8.88798 5.28516 8.72685 5.44629L4.21513 9.95801C4.05399 10.1191 3.79618 10.1191 3.63505 9.95801V9.95801ZM2.57743 12.4219H3.98368V13.4854L2.09403 13.8164L1.1829 12.9053L1.51395 11.0156H2.57743V12.4219Z" fill="white"/>
</g>
<defs>
<clipPath id="clip0_2866_1513">
<rect width="15" height="15" fill="white"/>
</clipPath>
</defs>
</svg>
